<?xml version="1.0" encoding="utf-8"?>
<!-- Generator: Adobe Illustrator 27.5.0, SVG Export Plug-In . SVG Version: 6.00 Build 0)  -->
<svg version="1.1" xmlns="http://www.w3.org/2000/svg" xmlns:xlink="http://www.w3.org/1999/xlink" x="0px" y="0px"
	 viewBox="0 0 500 500" style="enable-background:new 0 0 500 500;" xml:space="preserve">
<g id="BACKGROUND">

</g>
    <g id="OBJECTS">
	<g>
		<g>
			<g>
				<g>
					<g>
						<g>
							<g id="_x3C_Radial_Repeat_x3E__00000131343045497788440750000008704546446131866016_">
								<g>

										<line style="fill:none;stroke:#9E6B23;stroke-width:5;stroke-linecap:round;stroke-linejoin:round;stroke-miterlimit:10;"
											  x1="201.398" y1="271.526" x2="112.029" y2="271.277"/>
								</g>
							</g>
                            <g id="_x3C_Radial_Repeat_x3E__00000129194281644193635660000000080307037003378601_">
								<g>
									
										<line style="fill:none;stroke:#9E6B23;stroke-width:5;stroke-linecap:round;stroke-linejoin:round;stroke-miterlimit:10;"
											  x1="215.198" y1="232.388" x2="157.834" y2="174.638"/>
								</g>
							</g>
                            <g id="_x3C_Radial_Repeat_x3E__00000016060185475222492200000001692162588144990906_">
								<g>
									
										<line style="fill:none;stroke:#9E6B23;stroke-width:5;stroke-linecap:round;stroke-linejoin:round;stroke-miterlimit:10;"
                                              x1="252.481" y1="135.079" x2="252.223" y2="216.753"/>
								</g>
							</g>
                            <g id="_x3C_Radial_Repeat_x3E__00000155111527300313339200000007668617271118995363_">
								<g>
									
										<line style="fill:none;stroke:#9E6B23;stroke-width:5;stroke-linecap:round;stroke-linejoin:round;stroke-miterlimit:10;"
                                              x1="345.688" y1="175.755" x2="288.947" y2="232.13"/>
								</g>
							</g>
                            <g id="_x3C_Radial_Repeat_x3E__00000134966836430835044710000001749455208096778122_">
								<g>
									
										<line style="fill:none;stroke:#9E6B23;stroke-width:5;stroke-linecap:round;stroke-linejoin:round;stroke-miterlimit:10;"
                                              x1="387.971" y1="271.767" x2="303.766" y2="271.509"/>
								</g>
							</g>
						</g>
                        <g>
							<g id="_x3C_Radial_Repeat_x3E__00000015340581747069291510000016240064605305747617_">
								<g>

										<line style="fill:none;stroke:#9E6B23;stroke-width:5;stroke-linecap:round;stroke-linejoin:round;stroke-miterlimit:10;"
											  x1="204.137" y1="249.548" x2="152.487" y2="231.744"/>
								</g>
							</g>
                            <g id="_x3C_Radial_Repeat_x3E__00000031923132523643831900000016302987838062993822_">
								<g>
									
										<line style="fill:none;stroke:#9E6B23;stroke-width:5;stroke-linecap:round;stroke-linejoin:round;stroke-miterlimit:10;"
                                              x1="231.24" y1="221.199" x2="211.804" y2="174.166"/>
								</g>
							</g>
                            <g id="_x3C_Radial_Repeat_x3E__00000111176308292884376440000009927635787157415824_">
								<g>

										<line style="fill:none;stroke:#9E6B23;stroke-width:5;stroke-linecap:round;stroke-linejoin:round;stroke-miterlimit:10;"
											  x1="289.291" y1="174.617" x2="270.413" y2="220.082"/>
								</g>
							</g>
                            <g id="_x3C_Radial_Repeat_x3E__00000035530064608194238000000018109884249574954173_">
								<g>
									
										<line style="fill:none;stroke:#9E6B23;stroke-width:5;stroke-linecap:round;stroke-linejoin:round;stroke-miterlimit:10;"
                                              x1="343.755" y1="229.747" x2="299.6" y2="247.958"/>
								</g>
							</g>
						</g>
					</g>
                    <path style="fill:#9E6B23;" d="M276.616,270.413c-0.384-13.172-11.156-23.738-24.421-23.738
						c-13.265,0-24.037,10.566-24.422,23.738L276.616,270.413z"/>
				</g>
                <g>
					<g>
						<path style="fill:#9E6B23;" d="M288.358,273.656c-0.24,0-0.471-0.021-0.7-0.061c-0.231-0.05-0.46-0.12-0.67-0.2
							c-0.21-0.09-0.42-0.199-0.61-0.33c-0.2-0.13-0.38-0.279-0.55-0.449c-0.68-0.681-1.05-1.58-1.05-2.53
							c0-0.94,0.38-1.87,1.05-2.53c0.16-0.17,0.35-0.319,0.54-0.45c0.2-0.13,0.399-0.239,0.62-0.33
							c0.22-0.079,0.439-0.149,0.67-0.199c1.16-0.23,2.399,0.149,3.229,0.979c0.66,0.66,1.051,1.59,1.051,2.53
							c0,0.95-0.381,1.85-1.051,2.53c-0.17,0.17-0.35,0.319-0.55,0.449c-0.189,0.131-0.399,0.24-0.609,0.33
							c-0.221,0.08-0.44,0.15-0.671,0.2C288.828,273.636,288.597,273.656,288.358,273.656z"/>
					</g>
                    <g>
						<path style="fill:#9E6B23;" d="M282.097,255.196c0,0,0,0,0,0.01l0,0c-0.8-1.811,0.02-3.931,1.83-4.72l0,0
							c1.811-0.801,3.92,0.02,4.721,1.819v0.01c0.8,1.801-0.021,3.921-1.83,4.71l0,0c-0.471,0.211-0.96,0.311-1.44,0.311l0,0
							C283.997,257.336,282.688,256.536,282.097,255.196z M217.587,256.987c-1.809-0.801-2.62-2.921-1.82-4.721l0,0
							c0.801-1.81,2.91-2.63,4.721-1.83l0,0c1.8,0.801,2.62,2.92,1.819,4.721l0,0l0,0l0,0c-0.59,1.34-1.899,2.13-3.27,2.13l0,0
							C218.547,257.286,218.057,257.186,217.587,256.987z M273.078,243.256L273.078,243.256L273.078,243.256
							c-1.521-1.27-1.72-3.52-0.46-5.04l0,0c1.26-1.52,3.52-1.73,5.04-0.46l0,0c1.519,1.26,1.72,3.52,0.46,5.04l0,0
							c-0.71,0.85-1.73,1.29-2.75,1.29l0,0C274.557,244.086,273.747,243.806,273.078,243.256z M226.297,242.756
							c-1.26-1.52-1.05-3.77,0.47-5.03l0,0c1.52-1.269,3.78-1.059,5.04,0.46l0,0c1.261,1.521,1.051,3.78-0.47,5.04l0,0
							c-0.67,0.561-1.479,0.83-2.28,0.83l0,0C228.028,244.056,227.007,243.616,226.297,242.756z M259.698,236.566c0,0,0,0,0,0.011
							l0,0c-1.92-0.46-3.12-2.38-2.66-4.311l0,0c0.45-1.92,2.37-3.109,4.3-2.66l0,0c1.92,0.45,3.11,2.381,2.66,4.301l0,0
							c-0.39,1.649-1.85,2.76-3.48,2.76l0,0C260.247,236.666,259.978,236.636,259.698,236.566z M240.427,233.896
							c-0.449-1.93,0.75-3.85,2.67-4.3l0,0c1.931-0.45,3.851,0.74,4.301,2.67l0,0c0.449,1.92-0.74,3.851-2.67,4.3l0,0
							c-0.271,0.061-0.54,0.091-0.811,0.091l0,0C242.287,236.656,240.818,235.546,240.427,233.896z"/>
					</g>
                    <g>
						<path style="fill:#9E6B23;" d="M216.028,273.666c-0.95,0-1.851-0.38-2.521-1.05c-0.17-0.17-0.319-0.351-0.45-0.551
							c-0.13-0.19-0.239-0.399-0.329-0.609c-0.091-0.22-0.16-0.44-0.2-0.67c-0.05-0.23-0.07-0.471-0.07-0.7
							c0-0.94,0.38-1.87,1.05-2.53c0.83-0.83,2.061-1.21,3.221-0.979c0.229,0.05,0.46,0.12,0.67,0.199
							c0.22,0.091,0.43,0.2,0.619,0.33c0.2,0.131,0.381,0.28,0.551,0.45c0.66,0.66,1.04,1.59,1.04,2.53c0,0.23-0.021,0.47-0.07,0.7
							c-0.04,0.23-0.11,0.45-0.2,0.67c-0.09,0.21-0.2,0.42-0.33,0.609c-0.13,0.2-0.279,0.381-0.45,0.551
							C217.887,273.286,216.988,273.666,216.028,273.666z"/>
					</g>
				</g>
                <path style="fill:none;stroke:#9E6B23;stroke-width:5;stroke-linecap:round;stroke-linejoin:round;stroke-miterlimit:10;"
                      d="
					M303.632,271.526c0.079-1.165,0.134-2.337,0.134-3.522c0-28.305-22.946-51.251-51.251-51.251
					c-28.305,0-51.251,22.946-51.251,51.251c0,1.185,0.055,2.357,0.134,3.522"/>
			</g>
            <g>
				
					<line style="fill:none;stroke:#9E6B23;stroke-width:5;stroke-linecap:round;stroke-linejoin:round;stroke-miterlimit:10;"
						  x1="387.971" y1="345.189" x2="112.029" y2="345.189"/>

                <line style="fill:none;stroke:#9E6B23;stroke-width:5;stroke-linecap:round;stroke-linejoin:round;stroke-miterlimit:10;"
                      x1="363.926" y1="326.737" x2="136.074" y2="326.737"/>

                <line style="fill:none;stroke:#9E6B23;stroke-width:5;stroke-linecap:round;stroke-linejoin:round;stroke-miterlimit:10;"
                      x1="342.615" y1="308.804" x2="157.385" y2="308.804"/>

                <line style="fill:none;stroke:#9E6B23;stroke-width:5;stroke-linecap:round;stroke-linejoin:round;stroke-miterlimit:10;"
                      x1="331.179" y1="290.871" x2="168.821" y2="290.871"/>
			</g>
		</g>
        <g>
			<g>
				<g>
					
						<line style="fill:none;stroke:#9E6B23;stroke-width:5;stroke-linecap:round;stroke-linejoin:round;"
                              x1="100.037" y1="241.455" x2="100.037" y2="345.256"/>
					<g>
						<path style="fill:#9E6B23;" d="M95.525,241.68c0-2.492,2.02-4.512,4.512-4.512c2.491,0,4.512,2.02,4.512,4.512
							c0,2.491-2.02,4.512-4.512,4.512C97.546,246.192,95.525,244.172,95.525,241.68z"/>
					</g>
                    <g>
						<path style="fill:#9E6B23;" d="M95.525,345.03c0,2.491,2.02,4.512,4.512,4.512c2.491,0,4.512-2.02,4.512-4.512
							s-2.02-4.512-4.512-4.512C97.546,340.518,95.525,342.539,95.525,345.03z"/>
					</g>
				</g>
			</g>
            <g>
				<g>

						<line style="fill:none;stroke:#9E6B23;stroke-width:5;stroke-linecap:round;stroke-linejoin:round;"
							  x1="399.963" y1="241.455" x2="399.963" y2="345.256"/>
					<g>
						<path style="fill:#9E6B23;" d="M395.451,241.68c0-2.492,2.02-4.512,4.512-4.512s4.512,2.02,4.512,4.512
							c0,2.491-2.02,4.512-4.512,4.512S395.451,244.172,395.451,241.68z"/>
					</g>
					<g>
						<path style="fill:#9E6B23;" d="M395.451,345.03c0,2.491,2.02,4.512,4.512,4.512s4.512-2.02,4.512-4.512
							s-2.02-4.512-4.512-4.512S395.451,342.539,395.451,345.03z"/>
					</g>
				</g>
			</g>
		</g>
	</g>
</g>
    <g id="TEXT">
	<g>
		
			<path style="fill:none;stroke:#9E6B23;stroke-width:3.5776;stroke-linecap:round;stroke-linejoin:round;stroke-miterlimit:10;"
                  d="
			M116.004,357.242"/>
        <path id="SVGID_x5F_1_x5F_" style="fill:none;" d="M386.707,256.742c0-74.752-60.599-135.351-135.351-135.351h0
			c-74.752,0-135.351,60.599-135.351,135.351"/>
	</g>
</g>
</svg>
